<?xml version="1.0" encoding="UTF-8"?>
<!DOCTYPE svg PUBLIC "-//W3C//DTD SVG 1.1//EN" "http://www.w3.org/Graphics/SVG/1.1/DTD/svg11.dtd">
<svg xmlns="http://www.w3.org/2000/svg" xml:space="preserve" width="210mm" height="100mm" version="1.1" style="shape-rendering:geometricPrecision; text-rendering:geometricPrecision; image-rendering:optimizeQuality; fill-rule:evenodd; clip-rule:evenodd"
viewBox="0 0 21000 10000"
 xmlns:xlink="http://www.w3.org/1999/xlink"
 xmlns:xodm="http://www.corel.com/coreldraw/odm/2003">
 <defs>
  <style type="text/css">
   <![CDATA[
    .str0 {stroke:#373435;stroke-width:20;stroke-miterlimit:22.9256}
    .fil1 {fill:#373435}
    .fil0 {fill:#373435;fill-rule:nonzero}
   ]]>
  </style>
 </defs>
 <g id="Camada_x0020_1">
  <metadata id="CorelCorpID_0Corel-Layer"/>
  <path class="fil0 str0" d="M11989.71 5443.63c0,381.16 -142.92,672.14 -428.73,873.03 -250.65,178.13 -573.78,267.16 -969.33,267.16 -470.19,0 -894.76,-86.96 -1273.78,-260.97 -39.43,-18.63 -59.05,-37.29 -59.05,-55.91 0,6.22 49.72,-155.36 149.12,-484.68 12.43,-45.53 31.08,-68.33 55.91,-68.33 368.65,188.52 672.09,282.71 910.33,282.71 565.44,0 848.15,-205.05 848.15,-615.14 0,-254.77 -97.37,-431.84 -292.04,-531.29 -138.82,-72.43 -346.98,-108.72 -624.46,-108.72 -58.06,0 -138.82,2.12 -242.34,6.2 -103.61,4.17 -177.07,6.22 -220.6,6.22 -120.17,0 -180.18,-24.85 -180.18,-74.55 0,-281.67 31.07,-422.55 93.22,-422.55 91.08,0 228.33,10.39 411.64,31.07 183.29,20.78 320.52,31.1 411.64,31.1 136.7,0 247.97,-45.56 333.98,-136.73 85.93,-91.08 128.96,-205.03 128.96,-341.73 0,-381.09 -247.57,-571.66 -742.54,-571.66 -289.98,0 -550.98,61.14 -782.91,183.29 -8.36,4.19 -18.65,6.22 -31.08,6.22 -51.82,0 -77.68,-154.28 -77.68,-462.92 0,-103.52 166.73,-184.28 500.22,-242.33 229.9,-39.34 438.06,-59.03 624.46,-59.03 345.83,0 640.96,75.63 885.43,226.79 292.06,178.16 438.07,429.8 438.07,754.97 0,167.78 -45.62,335.52 -136.68,503.31 -99.42,178.16 -222.74,298.25 -369.71,360.39 426.6,142.9 639.98,444.26 639.98,904.08z"/>
  <path class="fil0 str0" d="M15276.57 4449.45c0,292.04 -9.3,461.92 -27.94,509.52 -31.06,93.2 -198.85,365.62 -503.3,817.09 -312.85,461.92 -499.21,705.25 -559.25,730.1 -28.99,12.41 -116.02,18.65 -260.97,18.65 -138.81,0 -229.9,-6.24 -273.43,-18.65 -58.02,-18.63 -247.51,-252.62 -568.52,-702.15 -312.81,-437 -487.78,-703.11 -525.05,-798.45 -49.72,-130.48 -74.59,-332.43 -74.59,-605.83 0,-84.87 2.07,-212.24 6.26,-382.13 4.06,-169.82 6.2,-297.19 6.2,-382.15 0,-45.53 22.73,-68.35 68.33,-68.35 68.37,0 170.31,3.11 306.02,9.33 135.67,6.2 237.68,9.32 306.03,9.32 37.28,0 55.94,20.75 55.94,62.14 0,66.3 -4.19,164.17 -12.46,293.59 -8.31,129.51 -12.41,227.35 -12.41,293.59 0,190.59 10.29,364.58 31.06,521.96 10.32,78.71 115.44,271.35 315.35,577.85 199.84,306.61 323.63,459.83 371.27,459.83 45.54,0 158.45,-150.13 338.65,-450.5 178.06,-294.09 273.38,-479.43 285.82,-556.14 16.54,-103.47 24.85,-281.65 24.85,-534.35 0,-68.35 -6.78,-170.87 -20.19,-307.58 -13.49,-136.7 -20.21,-239.22 -20.21,-307.58 0,-31.07 15.55,-46.61 46.61,-46.61 68.38,0 168.74,-3.58 301.37,-10.86 132.51,-7.21 231.95,-10.88 298.25,-10.88 64.18,0 96.31,293.12 96.31,879.24z"/>
  <path class="fil0 str0" d="M18461 5443.63c0,381.16 -142.95,672.14 -428.72,873.03 -250.7,178.13 -573.82,267.16 -969.37,267.16 -470.17,0 -894.74,-86.96 -1273.81,-260.97 -39.42,-18.63 -59.02,-37.29 -59.02,-55.91 0,6.22 49.72,-155.36 149.14,-484.68 12.41,-45.53 31.07,-68.33 55.93,-68.33 368.66,188.52 672.03,282.71 910.29,282.71 565.46,0 848.17,-205.05 848.17,-615.14 0,-254.77 -97.39,-431.84 -292.03,-531.29 -138.83,-72.43 -347.01,-108.72 -624.49,-108.72 -58.04,0 -138.83,2.12 -242.32,6.2 -103.58,4.17 -177.09,6.22 -220.58,6.22 -120.21,0 -180.22,-24.85 -180.22,-74.55 0,-281.67 31.09,-422.55 93.22,-422.55 91.06,0 228.35,10.39 411.64,31.07 183.31,20.78 320.51,31.1 411.68,31.1 136.68,0 247.93,-45.56 333.99,-136.73 85.92,-91.08 128.88,-205.03 128.88,-341.73 0,-381.09 -247.54,-571.66 -742.49,-571.66 -290.03,0 -551,61.14 -782.93,183.29 -8.34,4.19 -18.65,6.22 -31.09,6.22 -51.81,0 -77.65,-154.28 -77.65,-462.92 0,-103.52 166.69,-184.28 500.22,-242.33 229.9,-39.34 438.02,-59.03 624.44,-59.03 345.85,0 641,75.63 885.46,226.79 292.03,178.16 438.06,429.8 438.06,754.97 0,167.78 -45.62,335.52 -136.72,503.31 -99.4,178.16 -222.7,298.25 -369.7,360.39 426.63,142.9 640.02,444.26 640.02,904.08z"/>
  <path class="fil1 str0" d="M6990.29 1849.52c-0.02,83.65 2.1,209.03 6.13,376.21 4.15,167.22 6.13,292.6 6.19,376.17 0,269.14 -24.39,467.98 -73.37,596.38 -36.68,93.82 -208.96,355.87 -516.86,786.12 -315.93,442.46 -502.52,672.9 -559.63,691.24 -42.83,12.24 -132.5,18.35 -269.18,18.33 -136.68,0.02 -226.36,-6.09 -269.19,-18.33 -57.11,-18.34 -243.7,-248.78 -559.63,-691.24 -307.9,-430.25 -480.18,-692.3 -516.86,-786.12 -48.98,-128.4 -73.37,-327.24 -73.37,-596.38 0.06,-83.57 2.04,-208.95 6.19,-376.17 4.03,-167.18 6.15,-292.56 6.13,-376.21 0.03,-44.81 22.39,-67.26 67.28,-67.25 67.3,-0.03 167.67,3.03 301.26,9.17 133.52,6.13 233.94,9.19 301.19,9.17 36.72,0.01 55.05,20.4 55.01,61.18 0,65.27 -4.07,161.58 -12.21,289.02 -8.17,127.45 -12.26,223.79 -12.24,289.03 0.03,187.63 10.16,358.9 30.53,513.87 10.19,77.51 113.63,267.14 310.43,568.87 196.79,301.83 318.52,452.68 365.48,452.67 46.95,0.01 168.68,-150.84 365.48,-452.67 196.79,-301.73 300.23,-491.36 310.42,-568.87 20.37,-154.97 30.5,-326.24 30.53,-513.87 0.02,-65.24 -4.07,-161.58 -12.23,-289.03 -8.15,-127.44 -12.22,-223.75 -12.22,-289.02 -0.04,-40.78 18.29,-61.17 55.01,-61.18 67.25,0.02 167.67,-3.04 301.2,-9.17 133.58,-6.14 233.95,-9.2 301.25,-9.17 44.89,-0.01 67.25,22.44 67.28,67.25z"/>
  <path class="fil1 str0" d="M2179.84 5308.43c72.45,-41.81 179.98,-106.34 322.74,-193.42 142.75,-87.2 250.34,-151.61 322.68,-193.44 233.08,-134.58 417.48,-212.87 553.17,-234.65 99.59,-15.15 412.67,3.02 939.23,54.55 541.15,52.37 834.01,98.75 878.45,139.03 32.01,30.98 82.14,105.58 150.46,223.96 68.36,118.36 107.9,199.07 118.72,242.28 12.67,58.63 -93.6,335.44 -318.82,830.28 -218.65,481.77 -359.46,761.99 -422.37,840.67 -86.71,106.62 -246.71,227.17 -479.8,361.74 -72.4,41.73 -181.97,102.7 -328.86,182.72 -146.8,80.1 -256.44,140.95 -328.87,182.79 -38.82,22.38 -69.44,14.24 -91.89,-24.64 -33.67,-58.27 -81.21,-146.72 -142.68,-265.48 -61.45,-118.7 -109.02,-207.2 -142.65,-265.43 -18.35,-31.8 -9.87,-57.87 25.47,-78.23 56.53,-32.63 141.97,-77.26 256.41,-133.93 114.45,-56.65 199.94,-101.28 256.43,-133.91 162.47,-93.85 305.73,-188.26 429.76,-283.38 62.02,-47.58 174.52,-231.98 337.44,-553.27 162.99,-321.34 232.77,-502.19 209.28,-542.85 -23.47,-40.67 -214.98,-70.67 -574.76,-90.18 -359.71,-19.56 -575.65,-14.33 -647.87,15.6 -144.39,59.84 -297.79,136.71 -460.29,230.49 -56.51,32.61 -137.9,84.32 -244.19,155.11 -106.29,70.78 -187.66,122.46 -244.19,155.09 -35.3,20.43 -62.12,14.75 -80.49,-17.05 -33.61,-58.24 -86.47,-143.68 -158.54,-256.26 -72.11,-112.61 -124.95,-198 -158.57,-256.3 -22.45,-38.88 -14.19,-69.47 24.6,-91.89z"/>
  <path class="fil1 str0" d="M7580.56 7744.94c-72.43,-41.84 -182.07,-102.69 -328.87,-182.79 -146.89,-80.02 -256.46,-140.99 -328.86,-182.72 -233.09,-134.57 -393.09,-255.12 -479.8,-361.74 -62.91,-78.68 -203.72,-358.9 -422.37,-840.67 -225.22,-494.84 -331.49,-771.65 -318.82,-830.28 10.82,-43.21 50.37,-123.92 118.72,-242.28 68.33,-118.38 118.45,-192.98 150.46,-223.96 44.44,-40.28 337.3,-86.66 878.45,-139.03 526.56,-51.53 839.64,-69.7 939.23,-54.55 135.69,21.78 320.09,100.07 553.17,234.65 72.34,41.83 179.93,106.24 322.68,193.44 142.77,87.08 250.29,151.61 322.74,193.42 38.79,22.42 47.05,53.01 24.6,91.89 -33.62,58.3 -86.46,143.69 -158.57,256.3 -72.07,112.58 -124.93,198.02 -158.54,256.26 -18.37,31.8 -45.19,37.48 -80.49,17.05 -56.52,-32.63 -137.9,-84.31 -244.19,-155.09 -106.29,-70.79 -187.68,-122.5 -244.19,-155.11 -162.5,-93.78 -315.89,-170.65 -460.29,-230.49 -72.22,-29.93 -288.16,-35.16 -647.87,-15.6 -359.78,19.51 -551.29,49.51 -574.76,90.18 -23.49,40.66 46.29,221.51 209.28,542.85 162.92,321.29 275.42,505.69 337.44,553.27 124.03,95.12 267.29,189.53 429.77,283.38 56.48,32.63 141.97,77.26 256.42,133.91 114.44,56.67 199.88,101.3 256.41,133.93 35.34,20.36 43.83,46.43 25.47,78.23 -33.63,58.23 -81.19,146.73 -142.65,265.43 -61.47,118.76 -109.01,207.21 -142.68,265.48 -22.44,38.88 -53.07,47.02 -91.89,24.64z"/>
 </g>
</svg>
